<?xml version="1.0" standalone="no"?>
<!DOCTYPE svg PUBLIC "-//W3C//DTD SVG 20010904//EN"
 "http://www.w3.org/TR/2001/REC-SVG-20010904/DTD/svg10.dtd">
<svg version="1.0" xmlns="http://www.w3.org/2000/svg"
 width="521.000000pt" height="521.000000pt" viewBox="0 0 521.000000 521.000000"
 preserveAspectRatio="xMidYMid meet">
<metadata>
Created by potrace 1.11, written by Peter Selinger 2001-2013
</metadata>
<g transform="translate(0.000000,521.000000) scale(0.100000,-0.100000)"
fill="#000000" stroke="none">
<path d="M645 3840 c-2 -4 -66 -265 -90 -370 -2 -8 -15 -64 -30 -125 -15 -60
-35 -148 -46 -195 -11 -47 -22 -94 -24 -105 -3 -11 -35 -144 -71 -295 -36
-151 -67 -282 -69 -290 -8 -36 -39 -166 -71 -300 -20 -80 -37 -154 -40 -165
-2 -11 -14 -65 -28 -120 -13 -55 -40 -170 -60 -255 -20 -85 -43 -179 -51 -208
l-14 -52 402 2 401 3 23 95 c12 52 25 104 27 115 2 11 9 42 15 69 7 27 9 51 7
54 -3 2 -75 4 -161 4 -141 0 -155 1 -151 16 3 9 14 58 26 107 31 132 46 198
75 315 14 58 33 137 41 175 19 86 18 82 44 185 11 47 23 95 25 106 3 12 21 88
41 170 39 162 43 177 50 213 3 14 27 115 53 225 27 111 53 219 58 241 l9 40
162 3 161 2 10 38 c37 138 72 295 66 300 -8 8 -785 10 -790 2z"/>
<path d="M4315 3695 c-19 -82 -38 -160 -41 -172 -6 -21 -5 -21 152 -22 86 0
158 -2 160 -4 2 -2 -26 -127 -61 -278 -67 -285 -87 -368 -205 -858 -39 -162
-73 -306 -76 -320 -2 -14 -22 -96 -42 -181 l-38 -155 -157 -1 c-87 -1 -159 -3
-161 -5 -5 -6 -76 -308 -76 -324 0 -13 56 -15 394 -15 l393 0 43 178 c72 304
119 502 149 627 67 280 221 928 225 951 2 11 14 57 26 104 12 47 24 96 27 110
2 14 20 90 39 170 20 80 38 154 40 165 2 11 12 54 22 95 11 41 17 77 15 80 -3
3 -182 5 -398 5 l-394 0 -36 -150z"/>
<path d="M1209 3141 c-24 -97 -44 -185 -46 -196 -2 -11 -8 -38 -14 -60 -6 -22
-12 -47 -14 -55 -5 -24 -154 -658 -171 -725 -8 -33 -16 -69 -18 -80 -3 -11
-16 -69 -31 -128 -15 -60 -23 -112 -20 -115 4 -4 107 -7 230 -7 l224 0 40 165
c21 91 51 217 66 281 l27 116 39 -2 c22 -1 41 -4 43 -6 4 -4 46 -105 138 -329
32 -78 33 -81 71 -170 l24 -55 374 0 374 0 11 50 c6 28 39 167 72 310 55 238
83 368 111 530 6 33 13 71 16 85 3 14 8 46 12 73 3 26 9 47 12 47 3 0 6 -245
6 -544 0 -478 2 -545 15 -548 8 -2 106 -4 218 -3 l203 0 90 175 c50 96 152
294 226 440 203 396 247 479 251 475 4 -3 -16 -73 -59 -210 -15 -48 -64 -239
-98 -380 -17 -71 -51 -211 -75 -310 -24 -99 -41 -182 -39 -185 7 -7 393 -6
405 1 6 4 23 62 39 130 15 68 65 275 109 459 44 184 82 342 84 350 2 8 23 94
46 190 22 96 43 182 45 190 1 8 12 55 24 103 12 49 21 94 21 100 0 9 -78 12
-307 12 l-306 0 -27 -50 c-15 -27 -80 -153 -145 -280 -65 -126 -141 -275 -170
-330 -29 -55 -89 -173 -135 -263 -46 -89 -85 -160 -87 -158 -3 2 -5 245 -5
539 0 393 -3 537 -12 540 -16 5 -594 3 -599 -3 -4 -4 -111 -451 -122 -508 -2
-13 -7 -32 -10 -42 -3 -10 -8 -28 -10 -39 -8 -36 -12 -54 -35 -146 -12 -49
-24 -99 -26 -110 -8 -41 -23 -106 -91 -388 l-16 -68 -30 63 c-17 35 -55 113
-84 173 -30 61 -61 124 -68 142 l-13 32 62 31 c161 81 256 233 261 419 1 47
-2 102 -7 124 -32 143 -136 239 -308 286 -113 31 -142 33 -457 35 l-292 2 -42
-175z m591 -167 c51 -30 68 -108 42 -185 -28 -85 -94 -128 -207 -136 -82 -6
-82 -7 -65 56 5 20 19 77 30 126 12 50 26 107 31 128 l10 37 65 -4 c35 -3 77
-13 94 -22z"/>
</g>
</svg>
